<svg xmlns="http://www.w3.org/2000/svg" viewBox="0 0 1782 492" width="1782" height="492" role="img" aria-label="ATOMYS — Inteligentní systémy pro řízení provozu">
  <title>ATOMYS — Inteligentní systémy pro řízení provozu</title>
  <defs>
    <linearGradient id="wUp" x1="0" y1="40" x2="0" y2="319" gradientUnits="userSpaceOnUse">
      <stop offset="0" stop-color="#fcfcfd"/><stop offset="0.35" stop-color="#f1f4f7"/>
      <stop offset="0.68" stop-color="#c4cdd8"/><stop offset="1" stop-color="#97a5b7"/>
    </linearGradient>
    <linearGradient id="wLo" x1="0" y1="210" x2="0" y2="322" gradientUnits="userSpaceOnUse">
      <stop offset="0" stop-color="#e3e7ed"/><stop offset="0.35" stop-color="#d4dae3"/>
      <stop offset="0.68" stop-color="#c0c9d5"/><stop offset="1" stop-color="#aebbc9"/>
    </linearGradient>
    <linearGradient id="wBl" x1="0" y1="214" x2="0" y2="280" gradientUnits="userSpaceOnUse">
      <stop offset="0" stop-color="#1d80f6"/><stop offset="1" stop-color="#0166f0"/>
    </linearGradient>
    <linearGradient id="wWm" x1="0" y1="108" x2="0" y2="235" gradientUnits="userSpaceOnUse"><stop offset="0" stop-color="#ffffff"/><stop offset="0.55" stop-color="#eef1f4"/><stop offset="1" stop-color="#f6f8fa"/></linearGradient>
    <linearGradient id="wAcc" x1="0" y1="0" x2="1" y2="0">
      <stop offset="0" stop-color="#0a66d8" stop-opacity="0"/><stop offset="0.5" stop-color="#3d97ff" stop-opacity="0.95"/><stop offset="1" stop-color="#0a66d8" stop-opacity="0"/>
    </linearGradient>
    <filter id="wB1" x="-60%" y="-500%" width="220%" height="1100%"><feGaussianBlur stdDeviation="9"/></filter>
    <filter id="wB2" x="-60%" y="-500%" width="220%" height="1100%"><feGaussianBlur stdDeviation="3.5"/></filter>
    <filter id="wB3" x="-60%" y="-500%" width="220%" height="1100%"><feGaussianBlur stdDeviation="1.5"/></filter>
  </defs>
  <g transform="translate(-23 -1)">
    <path d="M214 218Q212.1 214.5 210.3 218L178.7 277.3Q177.5 279.5 180 279.5L244 279.5Q246.5 279.5 245.3 277.3Z" fill="url(#wBl)"/>
    <path d="M98.9 319.1L50.5 318.8Q47.5 318.8 48.9 316.1L176.7 69.6Q181.6 60.2 189.8 53.4L196 48.2Q201.1 44 207.4 42.3L210.2 41.5Q216.2 39.9 222.4 40L228 40Q231 40.1 232.6 42.7L234.3 45.6Q236.7 49.7 238.9 53.8L296.1 164.9Q297.5 167.6 294.5 167.6L246.8 167.9Q243.8 167.9 242.4 165.2L213.3 110.1Q211.9 107.5 210.5 110.2L103.2 316.4Q101.9 319.1 98.9 319.1Z" fill="url(#wUp)"/>
    <path d="M320.3 212.8L374.3 319.4Q375.6 322.1 372.6 322.1L324.6 322Q321.6 322 320.3 319.3L266.7 212.4Q265.3 209.8 268.3 209.8L316 210.1Q319 210.1 320.3 212.8Z" fill="url(#wLo)"/>
  </g>
  <g>
    <path d="M1046.8 128.3L1049.8 139.7L1049.7 206Q1046.8 216.3 1045.7 218.3Q1044.6 220.3 1041.1 224Q1037.6 227.7 1035.4 229.2L1033.1 230.7L1019.3 234.7L912.7 234.7Q903.7 232.7 899.7 230.7Q895.7 228.7 892.8 226.1Q890 223.6 887.5 220Q885 216.3 883.9 213.8Q882.9 211.3 882.4 207.8L881.9 204.3L881.9 139Q883 132.7 885 128.5Q887 124.3 889.7 121.2Q892.3 118.1 895.1 116Q897.8 114 900.9 112.5Q904 111 908.5 109.9L913 108.9L1019 108.9Q1026.9 111 1031.6 113.5Q1036.3 116 1039.5 119.1Q1042.7 122.2 1044.8 125.3L1046.8 128.3ZM1018 209.8Q1021.7 206.6 1022.8 204.6L1023.8 202.7L1023.8 140.3Q1019.3 134.9 1015 133.9L1010.7 132.9L919.3 132.8Q912.5 135 910.8 136.6Q909 138.2 908.1 141.1L907.2 144L906.9 199.7Q909 205.7 911.3 207.7Q913.7 209.7 919.2 210.4L924.7 211.1L1012 210.9L1018 209.8Z" fill="url(#wWm)" fill-rule="evenodd"/>
    <path d="M1276.7 141.9L1273.3 142L1218.6 197.7Q1206.7 198.8 1205 198.6Q1203.3 198.5 1200.8 196.4L1198.3 194.4L1145.3 141.1L1144 140.9L1142.8 143L1142.7 234.7L1139.7 234.7L1118.1 234.7L1117.2 231.7L1117.2 122Q1118 117.3 1121.8 113.6Q1125.7 110 1127 108.9L1128.3 108.9L1142.7 108.9L1149.3 111.1L1203.2 164.7L1210.3 170L1270.1 112L1279 108.9L1299.7 108.9L1302.3 110.1L1302.8 233L1299.7 234.7L1278.7 234.7L1276.7 231.7L1276.7 141.9Z" fill="url(#wWm)"/>
    <path d="M1590.3 212L1601 210.9L1686.7 211.2Q1692.3 209.7 1693.5 208.6Q1694.7 207.6 1695.7 205.6Q1696.7 203.7 1697 201.2Q1697.4 198.7 1697.1 196Q1696.8 193.3 1695.7 191.2Q1694.7 189 1693.5 188Q1692.3 186.9 1689.5 185.9L1686.7 184.9L1645.7 181.9L1608.3 180.8Q1599 178.8 1594.8 176.7L1590.7 174.6L1580.8 164.3Q1578 158.3 1576.9 153.5Q1575.9 148.7 1575.9 144.3Q1576 140 1577 135.8Q1578 131.7 1580.5 127Q1583.1 122.3 1586.2 119.2Q1589.3 116.1 1593.8 113.6Q1598.3 111 1602.8 109.9L1607.3 108.9L1715.7 108.9Q1715.8 112.3 1713.8 117.8Q1711.7 123.3 1710.2 126.3Q1708.7 129.4 1707.2 131L1705.7 132.7L1612.3 132.9Q1606.2 135 1604 138.2Q1601.8 141.3 1601.9 145.6Q1602 149.8 1603.1 151.8Q1604.2 153.7 1607.1 155.7L1610 157.8L1694.7 162.9Q1703.3 165.9 1706.8 168Q1710.3 170.1 1713 172.6Q1715.7 175.1 1718.2 179L1720.8 183L1723.5 197Q1722.8 208.3 1721.8 211.5Q1720.8 214.7 1718.7 218.2Q1716.6 221.7 1713.6 224.7Q1710.6 227.7 1705.9 230.2Q1701.3 232.8 1696.3 234.7L1691.3 234.7L1581.3 234.7L1580 234.7L1580 231.7L1590.3 212Z" fill="url(#wWm)"/>
    <path d="M449.3 234.7L449 232L487.7 171.5L519 118.9Q524.3 112.9 529.3 110.9L534.3 108.9L550 108.9Q559.3 112 561 113.7L562.6 115.3L634.8 232.7L633 234.7L621 234.7Q607.7 234.7 605.8 234.7L604 232.6L561.1 162.3L548.7 140.1Q544.6 135 543.3 134.4L542 133.9Q539.3 135.3 537.1 138.2L535 141.1L508.7 185.6L478.6 233.3L475.7 234.7L449.3 234.7Z" fill="url(#wWm)"/>
    <path d="M763.3 133.1L762.8 232.7L760.7 234.7L738.7 234.7L737 234.7L736.6 231.3L736.6 136.3L735.8 134.3L733 132.9L670 132.8L668.7 130.7L668.9 110.7L671.7 108.9L829 108.9L830.8 110.3Q831.8 120.3 831.3 125.8Q830.8 131.3 830.2 132L829.7 132.7L763.3 133.1Z" fill="url(#wWm)"/>
    <path d="M1360 108.9L1389.3 108.9L1391.6 110L1442 164.5L1457.7 180L1457.2 231.7L1456.1 234.7L1453.7 234.7L1434 234.7L1431 234.7L1430 231.7L1430.4 188L1429.7 184L1362.1 113.3L1360 110.8L1360 108.9Z" fill="url(#wWm)"/>
    <path d="M1468.3 169.8L1455 155.3L1454.9 152.3L1482 123L1497.3 108.9L1526.7 108.9L1525.7 112.6L1471.6 168.7L1468.3 169.8Z" fill="url(#wWm)"/>
  </g>
  <g>
    <path d="M682.5 310.9L683.6 312.8L682.7 346.5Q679.5 350.5 677.5 351.7Q675.5 352.8 669.3 352.8L663 352.8L657.8 348.2L657.9 346.2L660 344.1L661.5 344.1L665.5 348.8Q673.5 348.7 675.6 347.2Q677.8 345.7 678.3 344.2Q678.8 342.8 678.9 340.5L678.9 338.2L677.2 337Q671 340.9 668.6 340.8Q666.2 340.8 663.7 339.8Q661.2 338.8 659.1 336Q657 333.2 656.5 331.1Q655.9 329 655.9 325.6Q655.9 322.2 656.5 320.4Q657 318.5 659 315.8Q661 313 663 312Q665 310.9 669.1 310.9Q673.2 310.9 675.2 312.4L677.2 313.9L679.5 311.1L682.5 310.9ZM675.5 316.1L669.2 314Q664.2 316.1 663.2 317.3Q662.1 318.5 661.5 320.1Q660.9 321.8 660.9 325.2Q661 328.8 661.6 330.6Q662.2 332.5 663.7 334.1Q665.2 335.8 666.5 336.3Q667.8 336.8 669.9 336.8Q672 336.8 674.9 334.6Q677.8 332.5 678.3 331Q678.8 329.5 678.8 325.9Q678.8 322.2 677.1 319.2L675.5 316.1Z" fill="#b6c1ce" fill-rule="evenodd"/>
    <path d="M1111.1 313.8Q1114.5 312.8 1115.5 311.8L1116.5 310.9L1126.2 311.2Q1131.7 316.8 1132.8 319.6Q1133.8 322.5 1133.8 326.1Q1133.9 329.8 1132.8 332.7Q1131.8 335.7 1129 338.2Q1126.2 340.8 1122.2 341.3Q1118.2 341.8 1114.8 340.1L1111.2 338.4Q1110.9 351.5 1110.3 352.1L1109.8 352.8L1107.2 352.9L1105.9 351L1105.9 312.5L1106.8 311L1109.5 310.9L1111.1 313.8ZM1124.4 336.8Q1128.8 330.8 1128.8 326.2Q1128.8 321.8 1126.6 318.8Q1124.5 315.9 1123.5 315.4Q1122.5 314.9 1119.8 314.9Q1117 315 1115.3 316.1Q1113.5 317.2 1112.3 319Q1111 320.7 1111 326Q1111 331.2 1113.2 334Q1115.5 336.8 1118 337.3Q1120.5 337.9 1122.5 337.3L1124.4 336.8Z" fill="#b6c1ce" fill-rule="evenodd"/>
    <path d="M1395.8 338Q1394.9 339.5 1394.8 345.8L1394.7 352L1391.2 352.9L1389.9 351.5L1390.1 312.2L1391.2 310.9L1393.5 310.9L1395.1 313.8L1396.2 314Q1400.5 310.9 1405.2 310.9L1409.8 311Q1415.7 316.2 1416.7 319.1Q1417.6 322 1417.7 325.4Q1417.7 328.8 1416.8 332.1Q1415.8 335.5 1412.9 338.1Q1410 340.7 1408.1 341.2Q1406.2 341.8 1403.8 341.7Q1401.2 341.6 1398.5 339.8L1395.8 338ZM1398.3 316Q1394.9 320.2 1394.9 325.9Q1395 331.6 1396.5 333.7Q1398 335.7 1399.7 336.7Q1401.5 337.8 1404.9 337.2Q1408.2 336.7 1409.5 335.5Q1410.7 334.2 1411.7 331.9Q1412.8 329.5 1412.8 326.1Q1412.8 322.8 1412.3 321.2Q1411.7 319.8 1409.3 317.3Q1407 314.9 1405.2 314.6Q1403.5 314.2 1400.9 315.1L1398.3 316Z" fill="#b6c1ce" fill-rule="evenodd"/>
    <path d="M1517 316.1Q1523.8 310.9 1528.8 310.9Q1533.8 310.9 1535.7 311.9Q1537.6 313 1539.1 314.6Q1540.6 316.2 1541.7 318.8Q1542.8 321.2 1542.8 326Q1542.8 330.8 1541.8 333.2Q1540.8 335.6 1537.7 338.2Q1534.7 340.8 1532.9 341.2Q1531 341.7 1527.1 341.3Q1523.2 340.9 1521.6 339.8Q1520 338.7 1518.5 337.1Q1517 335.5 1515.9 333Q1514.9 330.5 1514.9 325.6Q1514.9 320.8 1516 318.4L1517 316.1ZM1521.9 318.2Q1519.9 322.2 1519.8 324.1Q1519.6 326 1519.8 328.5Q1519.9 331 1520.5 332.1Q1521.1 333.2 1522.7 335Q1524.2 336.7 1525.6 337.2Q1527 337.7 1530.2 337.2Q1533.5 336.6 1535.6 334.2L1537.8 331.8Q1537.6 320.5 1536 318.4Q1534.4 316.2 1532.9 315.6Q1531.5 314.9 1529.1 315Q1526.8 315.1 1524.3 316.7L1521.9 318.2Z" fill="#b6c1ce" fill-rule="evenodd"/>
    <path d="M1187.5 338.7Q1180.8 341.8 1178 341.8Q1175.2 341.8 1172 340.2Q1168.8 338.6 1166.9 336Q1165.1 333.5 1164.6 330.5Q1164.2 327.5 1164.5 323.4Q1164.9 319.2 1167.1 316.3Q1169.2 313.4 1171 312.2Q1172.8 311 1178 311Q1183.2 311 1186.5 313.6Q1189.8 316.2 1190.8 318.8Q1191.9 321.2 1192.1 324.5Q1192.4 327.8 1191.6 331.1Q1190.7 334.5 1189.1 336.6L1187.5 338.7ZM1185.8 333.6Q1187.9 326.8 1187.8 324.9Q1187.7 323 1186.7 320.6Q1185.7 318.2 1183.5 316.6Q1181.2 314.9 1178.4 314.9Q1175.5 314.9 1174.3 315.5Q1173.1 316 1171.6 317.6Q1170.2 319.2 1169.6 320.9Q1169 322.6 1169 325.7Q1168.9 328.8 1169.5 330.6Q1170 332.5 1172 334.6Q1174 336.7 1175.8 337.1Q1177.5 337.5 1180 337.1Q1182.5 336.8 1184.1 335.2L1185.8 333.6Z" fill="#b6c1ce" fill-rule="evenodd"/>
    <path d="M1448.9 333.5Q1447.9 327.8 1448.5 323.4Q1449 319 1450.6 316.5Q1452.2 314 1454.6 312.5Q1456.9 311 1462.1 311Q1467.2 311 1469 312.1Q1470.8 313.1 1472.8 315.6Q1474.8 318.1 1475.5 321.7Q1476.2 325.2 1475.5 329.5Q1474.8 333.8 1473 336.1Q1471.2 338.4 1469.5 339.6Q1467.8 340.8 1465.4 341.3Q1463 341.9 1459.6 341.4Q1456.2 340.8 1454.6 339.7Q1453 338.6 1451 336.1L1448.9 333.5ZM1466.2 336.9Q1470.7 331.5 1471.1 327.8Q1471.6 324 1470.6 321.1Q1469.7 318.2 1468.6 317.1Q1467.6 316 1464.6 315L1461.5 314Q1457 316 1455.5 317.6Q1454 319.2 1453.5 320.9Q1452.9 322.5 1452.9 326.6Q1453 330.8 1453.5 332.2Q1454 333.6 1455.6 335.2Q1457.2 336.8 1459.2 337.3Q1461.2 337.8 1463.8 337.3L1466.2 336.9Z" fill="#b6c1ce" fill-rule="evenodd"/>
    <path d="M1046.8 340.5L1044.8 341.3L1042.6 339.8L1042.7 322Q1041.8 318.1 1040 316.5Q1038.3 315 1036.4 314.9Q1034.5 314.9 1033 315.6Q1031.6 316.2 1030.3 317.9L1029 319.5L1028.6 339.8L1026.8 341.4L1024.2 340.7L1023.8 318.8Q1020.2 315.2 1018.8 315Q1017.2 314.9 1015.2 315.5Q1013.2 316.2 1011.7 318.5L1010.1 320.8L1009.9 340.2L1008 341.6L1006 340.7L1005.1 315L1006 311.5L1009.2 310.9L1010.5 312.7L1013 312.9Q1015.2 310.9 1017.8 310.6Q1020.4 310.2 1022.2 310.6Q1024 311 1025.9 312.7L1027.8 314.5Q1032.5 310.9 1035 310.6Q1037.5 310.2 1039.8 310.7Q1042 311.1 1043.4 312.2Q1044.7 313.2 1045.8 315.1L1046.8 317L1046.8 340.5Z" fill="#b6c1ce"/>
    <path d="M593.9 328.2Q594 331.2 595 332.9Q596 334.6 598.5 336.2L601 337.8Q607.5 336.8 609.2 335.4L611 333.9L614.3 334.2L614.7 336Q609 340.8 604.6 341.3Q600.2 341.8 598.4 341.3Q596.5 340.7 595 339.6Q593.4 338.5 591.2 334.8Q589 331 589 326.4Q589.1 321.8 590.7 318.5Q592.2 315.3 595.2 313.1Q598.2 310.9 603.1 310.9Q608 311 609.9 312.5Q611.8 314 613.3 316Q614.8 318 615.5 321.6Q616.1 325.2 615.8 326L615.5 326.8L597.2 327.1L593.9 328.2ZM593.9 321.5Q597 323.6 602.4 323.5Q607.8 323.4 609.1 323L610.5 322.5L610.9 320.8Q607.5 315.9 606.4 315.4Q605.2 314.9 602.8 314.9Q600.2 314.9 598.8 315.6Q597.2 316.3 595.6 318.9L593.9 321.5Z" fill="#b6c1ce" fill-rule="evenodd"/>
    <path d="M719.6 326.8L698.1 328Q697.9 330.5 698.5 331.8Q699.1 333 701 334.9Q703 336.8 705.5 337.3Q708 337.7 709.9 337.2Q711.7 336.8 713.4 335.3Q715 333.9 716.1 333.8L717.2 333.7L718.8 334.8Q717.5 337.5 715.4 339.1Q713.2 340.8 711.6 341.3Q710 341.8 707.1 341.8Q704.2 341.8 702.5 341.2Q700.8 340.6 697.9 338.1Q695 335.5 694 332.9Q692.9 330.2 693 326.2Q693 322.2 694 319.7Q695 317.1 698.5 314.1L702.1 311L711.2 310.9Q717.8 316.2 718.8 319.5Q719.8 322.8 719.7 324.8L719.6 326.8ZM713.8 318.2Q710.5 315 708 314.5L705.5 313.9Q701 316.9 699.5 319.3L698 321.8Q701 323.6 706.9 323.6Q712.8 323.7 713.8 322.9L714.8 322L713.8 318.2Z" fill="#b6c1ce" fill-rule="evenodd"/>
    <path d="M992 333.3L994 334.2L994.6 335.8Q992.5 338.5 989.5 340.1Q986.5 341.7 983.8 341.7Q981 341.8 978.9 341.3Q976.8 340.8 974.5 338.9Q972.2 337.1 971.1 335.5Q970 334 969.5 332Q969 330 969 326Q969 322 969.5 320.1Q970.1 318.2 972.2 315.7Q974.2 313.2 976 312Q977.8 310.9 982.9 310.9Q988 311 990.3 312.7Q992.6 314.5 994.3 318.4Q995.9 322.2 995.8 324.1L995.8 326L994.5 327L975 327.2L973.9 328.2Q973.9 331 974.9 332.9Q976 334.9 977.1 335.9Q978.2 336.8 981 337.3Q983.8 337.7 985.6 337.3Q987.5 336.8 989.8 335L992 333.3ZM990.8 322.5Q990.8 319.6 989.7 317.9Q988.6 316.2 986.2 315.3Q983.8 314.3 980.5 315.1Q977.2 315.9 975.6 318.2L973.9 320.5L974.2 322.6Q978.2 323.3 984.5 322.9L990.8 322.5Z" fill="#b6c1ce" fill-rule="evenodd"/>
    <path d="M1294.5 310.9Q1305 311 1307.2 312.7Q1309.5 314.3 1311.1 317.2Q1312.8 320.1 1312.9 322.9L1313 325.8L1311.2 327.6L1293.5 327L1291 328.5Q1292.1 333.5 1293.7 335.1Q1295.2 336.7 1296.5 337.2Q1297.8 337.8 1300.2 337.8Q1302.6 337.8 1305.4 335.8L1308.2 333.9L1311.6 334.8Q1309.5 338.5 1306.6 340.1Q1303.8 341.8 1300.8 341.8Q1297.8 341.8 1295.9 341.3Q1294.1 340.8 1291.5 338.6Q1289 336.5 1288 334.5Q1286.9 332.5 1287 325.6Q1287 318.8 1288.6 316.4Q1290.1 314 1292.3 312.4L1294.5 310.9ZM1307.8 322.6Q1307.7 319.5 1306.6 318.1Q1305.5 316.7 1302.8 315.5L1300 314.3Q1294.5 316.2 1292.9 318.9L1291.2 321.5L1293.5 323.7L1307.8 322.6Z" fill="#b6c1ce" fill-rule="evenodd"/>
    <path d="M1327.8 313.7Q1332.2 310.9 1335 310.6Q1337.8 310.3 1340 310.7Q1342.3 311 1344 312.6Q1345.7 314.2 1346.5 318.1L1347.3 322L1346.7 340.8L1344.8 341.4L1342.9 340.5L1342.4 321Q1340.5 316.8 1338.8 315.8Q1337 314.9 1334 315.4Q1330.9 316 1329.5 317.6Q1328 319.2 1327.4 320.5L1326.9 321.8L1326.8 340.5L1325 341.7L1322.2 340.3L1322 312.5L1323.2 310.9L1325.5 310.9L1327.8 313.7Z" fill="#b6c1ce"/>
    <path d="M1057.1 352.8L1057.2 349.5Q1062.5 347.5 1063.6 345.6Q1064.8 343.8 1064.9 342.4L1065.1 341L1054 312L1055.2 310.9L1058.5 311.5Q1063.8 324 1064.9 328.2Q1066 332.3 1066.6 332.9L1067.2 333.6L1069.8 329.9L1076.1 311.5L1079.8 311L1080.7 312.8L1067.8 347.8L1062.9 352.8L1057.1 352.8Z" fill="#b6c1ce"/>
    <path d="M533.1 311L535.9 311L538.5 313.6Q542.2 310.9 546.9 310.9Q551.5 310.9 553.6 312.5Q555.8 314.1 556.8 316.9L557.8 319.8L557.2 340.5L553.8 340.9L552.8 339.8L552.8 325.5Q551.8 317.9 551.1 317L550.4 316Q545.5 314.8 543 315.4Q540.5 316 539.2 317.5L538 319L536.9 340.2L533 340.6L533.1 311Z" fill="#b6c1ce"/>
    <path d="M885 352.6L885 350.1Q886.2 348.9 887.5 348.8Q888.8 348.7 890.1 347.5Q891.5 346.3 892.7 343.5L893.8 340.8L884.8 316.2Q883 313.8 883 312.5L883.1 311.2L886.5 310.9L888.5 313.5L895 333L896 333.8L898.6 330.8L904.1 313.8L906.2 310.9L908.5 310.9Q908.8 315.2 907.9 316.6L907 318L896.7 347L891.5 352.8L885 352.6Z" fill="#b6c1ce"/>
    <path d="M1606.5 311.1L1606.9 340.5L1604.8 341.4L1601 338.9Q1594.8 341.9 1591 341.2Q1587.2 340.6 1585.1 338.2L1582.9 335.8L1582.1 312.2L1583.5 310.9L1586 311L1586.8 312L1587.2 333.1L1590.1 336.8Q1594.8 337.7 1596.2 337.2Q1597.8 336.7 1599.8 334.6L1601.8 332.6L1602 312.5L1603.2 310.9L1606.5 311.1Z" fill="#b6c1ce"/>
    <path d="M730.2 310.9L733.4 311L735.8 313.7Q739.5 310.9 744 310.9L748.5 310.9Q752.5 314.4 753.2 315.7L753.9 317L753.6 340.8L750.8 340.8L749.9 339.8L748.8 318Q745.4 315 743.9 314.9Q742.5 314.8 740 315.5Q737.5 316.1 736.3 317.3Q735 318.5 734.5 321.4L734.1 324.2L733.8 340.2L731.5 341.4L729.7 340.5L729.2 313.2L730.2 310.9Z" fill="#b6c1ce"/>
    <path d="M853.8 336.2L855.5 333.9L858 334Q860.8 336.7 862.2 337.2Q863.8 337.7 867.2 336.6L870.7 335.5L871.8 332.8L870.8 330.1Q866.4 328 862.8 327.4Q859.2 326.8 857.1 324.8Q855 322.8 854.6 320.8Q854.1 318.8 854.6 317Q855 315.2 857.6 313.1Q860.2 310.9 865.2 310.9Q870.2 310.9 871.4 311.6Q872.5 312.2 874.2 314.2L875.8 316.2L874.5 318.7Q871.2 317.8 869.8 316.4Q868.2 315 866.5 314.7Q864.8 314.4 862.4 315.2L860.1 316L858.9 319.8Q861.9 322.8 867 323.9Q872 325 873.9 326.6Q875.8 328.1 876.3 330.3Q876.8 332.5 876.3 334.6Q875.7 336.8 873.4 338.8Q871.1 340.8 866.6 341.3Q862 341.9 860.1 341.3Q858.2 340.8 856 338.5L853.8 336.2Z" fill="#b6c1ce"/>
    <path d="M811.6 340.8L807.9 340.2L807.4 319.8Q805 316.2 803.2 315.5Q801.5 314.9 798.9 315.4Q796.2 315.9 794.6 317.2Q793 318.5 792.5 320L791.9 321.5L791.8 340.2Q790 341 788.9 340.8L787.7 340.5L787.1 314L788.2 311L791 311L793.8 313.5Q797.5 310.9 801.8 310.9Q806 310.9 807.8 312.1Q809.5 313.4 810.7 315.3L811.9 317.2L811.6 340.8Z" fill="#b6c1ce"/>
    <path d="M933.5 330Q929.2 328 925.8 327.4Q922.4 326.8 920.2 325.2Q918.1 323.8 917.1 321.4L916.2 319Q919.1 313 921.1 312Q923 310.9 927.2 310.9Q931.5 310.9 934.1 312.6L936.7 314.2L937.3 316.8L936 318.8Q930.7 315 929.2 314.7Q927.8 314.5 925.1 315.3L922.5 316L920.9 319.2L923.5 322.7Q933.5 324.9 935.1 326Q936.6 327 937.7 328.2Q938.8 329.5 938.8 332.5Q938.9 335.5 937.7 337.1Q936.6 338.8 935 339.7Q933.5 340.7 931 341.3Q928.5 341.9 924.8 341.3Q921 340.8 918.5 338.6L916.1 336.5L916.2 334.2L918.5 333.6L924.6 337.8L932.1 336.8L934.5 333.2L933.5 330Z" fill="#b6c1ce"/>
    <path d="M1572.6 311L1572.6 315.5L1556.9 335.8L1558.2 336.9L1572.2 336.9L1572.8 340.7L1550.2 340.6L1550.1 337.5L1566 316.8L1564 314.9L1551.5 314.8L1550.3 312.8L1551 311.2L1572.6 311Z" fill="#b6c1ce"/>
    <path d="M1256 311.1L1277.2 310.9L1278.5 311.8L1277.8 315.6L1262.3 335.8L1263.5 336.9Q1276.8 337.3 1277.7 337.9L1278.6 338.5L1278.5 340.6L1258 341.2L1255.6 340.5L1256.2 336.2L1271.8 316.5Q1269 314.9 1262.9 314.9L1256.8 314.8L1256 311.1Z" fill="#b6c1ce"/>
    <path d="M1495.5 333.5L1497.7 331.5L1503 313.5L1505.2 311L1508.2 311.1L1508.9 313L1503 326.8Q1500.8 334.8 1499.7 337.1Q1498.7 339.5 1497.2 340.7L1495.8 341.8L1492 339.2L1482.1 311.8L1485.8 310.9L1487.7 313L1494 332.5L1495.5 333.5Z" fill="#b6c1ce"/>
    <path d="M778.8 340.5Q776 341.9 773.2 341.4Q770.5 340.8 769.2 339.7Q768 338.6 767.5 337.3L767 336L766.8 316.2Q762.8 314.7 762 313.6L761.3 312.5L762.2 311Q764.8 310.8 765.7 310.2L766.7 309.5L766.9 303.8L768.8 302L771.8 304L772.7 310.5L777.5 310.9L778.8 312.2L778.2 314.6L773.2 314.9L771.8 316.8L771.9 335.5L773.2 336.8L778.4 337.2L778.8 340.5Z" fill="#b6c1ce"/>
    <path d="M569.7 316L565.5 314.7L564.9 312.5L565.8 311L569.7 309.8L569.9 304.2Q571.2 302.8 572.1 302.5L573 302.2L574.7 303.2Q574.9 309.2 575.3 309.9L575.8 310.5L581.7 311.5L581.5 314.6L576.2 314.9L574.8 316.8L574.9 335.2L576.2 336.8Q580.2 336.9 581 337.5L581.7 338L581.8 340.5L580.4 341.8L573.2 340.8L570.2 337L569.7 316Z" fill="#b6c1ce"/>
    <path d="M961.8 340.5Q958 341.8 955.7 341.3Q953.4 340.8 952.1 339.6L950.9 338.5L949.8 316.2L945.8 314.6L944.7 312.5L945.5 311.1Q948.2 310.8 949 310.2L949.8 309.6L949.9 304.2L951.5 302.8L954.6 303.5Q954.8 309.2 955.4 310L956 310.7L961.8 311.8L961 314.7Q959 315.5 957.8 315.2L956.5 314.9L954.9 316.2L954.8 335Q957.2 337.4 959.4 337.7L961.5 337.9L961.8 340.5Z" fill="#b6c1ce"/>
    <path d="M626.2 340.8L625.9 300.5L626.9 299L629.2 298.9L630.8 300.8L630.8 339.5L630 340.8L626.2 340.8Z" fill="#b6c1ce"/>
    <path d="M1217.9 340.5L1218 312L1221 310.8L1224 313.5L1231.5 310.1L1233.5 312.5L1233 314.5Q1227.2 315.9 1225.1 318.3L1223 320.8L1222.8 340.5L1220 341.7L1217.9 340.5Z" fill="#b6c1ce"/>
    <path d="M520.8 340.6L517.2 340.9L515.9 339.2L515.9 302.5L516.8 300.2Q518 299.7 519 299.9L520 300.2L520.9 302L520.8 340.6Z" fill="#b6c1ce"/>
    <path d="M1147.6 311L1149.2 313.7L1156 310.2Q1158.1 311.2 1158.5 312.1L1158.9 313L1157.9 314.8Q1152.2 316.1 1150.1 318.6L1148 321.2L1147.9 340.2L1145.8 341.4L1144 340.8L1143.2 339.2L1142.8 312.8L1144.2 310.9L1147.6 311Z" fill="#b6c1ce"/>
    <path d="M1433 318.1L1431.9 320.8L1431.8 339.5L1430.8 340.8L1427.8 340.8L1426.9 339.2L1427 312L1428.2 310.9L1431 311L1433.5 313.4L1440.2 309.9Q1442 311.2 1442.3 312.2L1442.7 313.2L1441.7 314.8Q1438.1 315 1435.5 316.6L1433 318.1Z" fill="#b6c1ce"/>
    <path d="M1358 340.6L1357.7 312.5L1358.4 311L1361.2 310.9L1362.7 312.8L1362.7 339.5L1360.8 341.5L1358 340.6Z" fill="#b6c1ce"/>
    <path d="M826.5 310.9L827.6 313L827.9 339.5L825.2 341.6L822.9 340L823 313L824.2 310.9L826.5 310.9Z" fill="#b6c1ce"/>
    <path d="M642 340.7L641.9 312.5L642.9 311L645.2 310.9L646.6 312.8L646.7 339L645.5 340.8L642 340.7Z" fill="#b6c1ce"/>
    <path d="M1242.1 340.8L1241.8 312L1242.5 310.9L1245.2 310.9L1246.5 313L1246.5 339.2L1245.5 340.8L1242.1 340.8Z" fill="#b6c1ce"/>
    <path d="M1232.8 299.2L1232.7 300.8L1227.2 305.9L1223.4 305.8L1217.8 300L1218.8 298.6Q1221.2 298.9 1222.8 300.4L1224.2 301.8L1225.8 301.9L1229.2 298.9L1232.8 299.2Z" fill="#b6c1ce"/>
    <path d="M823.6 305.5Q824 303.4 825.6 301.2Q827.1 299 828.4 298.6L829.8 298.1L831.8 299.1L831.8 300.5L827.5 305.7L823.6 305.5Z" fill="#b6c1ce"/>
    <path d="M982.5 306.7L981 304.8Q984.1 299.8 985.4 298.9L986.7 298L988.2 298.2L989.3 299.8Q988.6 301.5 986.7 303.6Q984.8 305.7 983.6 306.2L982.5 306.7Z" fill="#b6c1ce"/>
    <path d="M1358.8 305.6L1362.2 299L1365 298.1L1366.7 299L1366.7 300.8L1362.5 305.5L1358.8 305.6Z" fill="#b6c1ce"/>
    <path d="M1241.9 304.2Q1246.3 299 1247.5 298.6L1248.8 298.1L1250.5 299.2Q1250.4 300.5 1248 303.2Q1245.5 305.8 1244.4 306.2L1243.2 306.6L1241.9 304.2Z" fill="#b6c1ce"/>
    <path d="M645.5 298.9L646.8 300.5L646.8 303.5L645.2 304.9Q643 304.8 642 303.9L641 303L641 301L642.7 299L645.5 298.9Z" fill="#b6c1ce"/>
  </g>
  <g>
    <rect x="795" y="429.7" width="492" height="2.6" fill="url(#wAcc)"/>
    <ellipse cx="1042" cy="431" rx="130" ry="11" fill="#0566db" opacity="0.9" filter="url(#wB1)"/>
    <ellipse cx="1042" cy="431" rx="64" ry="4" fill="#2f9bff" filter="url(#wB2)"/>
    <ellipse cx="1042" cy="431" rx="19" ry="2.4" fill="#ffffff" filter="url(#wB3)"/>
  </g>
</svg>
