<svg xmlns="http://www.w3.org/2000/svg" viewBox="0 0 240 240" role="img" aria-label="ATOMYS">
  <title>ATOMYS</title>
  <defs>
    <linearGradient id="bg" x1="0" y1="0" x2="0" y2="1">
      <stop offset="0" stop-color="#12203a"/>
      <stop offset="1" stop-color="#060b16"/>
    </linearGradient>
    <radialGradient id="glow" cx="0.5" cy="0.40" r="0.60">
      <stop offset="0" stop-color="#1b3a6b" stop-opacity="0.55"/>
      <stop offset="1" stop-color="#1b3a6b" stop-opacity="0"/>
    </radialGradient>
    <linearGradient id="aLeft" x1="0" y1="0" x2="0.35" y2="1">
      <stop offset="0" stop-color="#eef3f8"/>
      <stop offset="0.30" stop-color="#ffffff"/>
      <stop offset="0.58" stop-color="#c9d3df"/>
      <stop offset="1" stop-color="#7f8b9a"/>
    </linearGradient>
    <linearGradient id="aRight" x1="0.65" y1="0" x2="1" y2="1">
      <stop offset="0" stop-color="#b8c2cf"/>
      <stop offset="0.45" stop-color="#98a4b3"/>
      <stop offset="1" stop-color="#66727f"/>
    </linearGradient>
    <linearGradient id="aBlue" x1="0" y1="0" x2="0" y2="1">
      <stop offset="0" stop-color="#47a0ff"/>
      <stop offset="1" stop-color="#1466d8"/>
    </linearGradient>
  </defs>
  <rect x="0" y="0" width="240" height="240" rx="52" fill="url(#bg)"/>
  <rect x="0" y="0" width="240" height="240" rx="52" fill="url(#glow)"/>
  <rect x="1" y="1" width="238" height="238" rx="51" fill="none" stroke="#33465f" stroke-opacity="0.5" stroke-width="1.5"/>
  <path d="M120 126 L98 196 L142 196 Z" fill="url(#aBlue)"/>
  <path d="M112 44 L52 196 L92 196 L120 118 L120 62 Z" fill="url(#aLeft)"/>
  <path d="M128 44 L188 196 L148 196 L120 118 L120 62 Z" fill="url(#aRight)"/>
</svg>
